<?xml version="1.0" standalone="no"?>
<!DOCTYPE svg PUBLIC "-//W3C//DTD SVG 20010904//EN"
 "http://www.w3.org/TR/2001/REC-SVG-20010904/DTD/svg10.dtd">
<svg version="1.0" xmlns="http://www.w3.org/2000/svg"
 width="700.000000pt" height="700.000000pt" viewBox="0 0 700.000000 700.000000"
 preserveAspectRatio="xMidYMid meet">
<metadata>
Created by potrace 1.14, written by Peter Selinger 2001-2017
</metadata>
<g transform="translate(0.000000,700.000000) scale(0.100000,-0.100000)"
fill="#000000" stroke="none">
<path d="M0 3500 l0 -3500 3500 0 3500 0 0 3500 0 3500 -3500 0 -3500 0 0
-3500z m3650 685 c0 -267 3 -485 8 -485 4 0 156 149 337 330 181 182 334 330
340 330 5 0 63 -53 127 -117 l118 -118 -317 -317 -318 -318 363 0 364 0 -7
-67 c-18 -186 -54 -315 -131 -463 -199 -386 -593 -623 -1034 -623 -450 0 -844
242 -1045 643 -67 134 -103 266 -120 443 l-7 67 369 1 368 0 -320 315 -319
314 119 120 c66 66 124 120 130 120 5 0 148 -138 317 -307 l308 -308 0 463 0
462 175 0 175 0 0 -485z"/>
</g>
</svg>
