<svg width="93" height="16" viewBox="0 0 93 16" fill="none" xmlns="http://www.w3.org/2000/svg">
<rect x="8.54004" y="1" width="14.8515" height="2.22772" transform="rotate(90 8.54004 1)" fill="#11181C"/>
<path d="M14.8515 8.57418C14.8515 10.5436 14.0691 12.4324 12.6765 13.825C11.2839 15.2176 9.39517 15.9999 7.42574 15.9999C5.45631 15.9999 3.56755 15.2176 2.17495 13.825C0.782353 12.4324 2.97376e-07 10.5436 0 8.57418L7.42574 8.57418H14.8515Z" fill="#11181C"/>
<rect x="2.37598" y="13.4326" width="14.8515" height="2.22772" transform="rotate(-45 2.37598 13.4326)" fill="#11181C"/>
<rect x="2.31738" y="2.93066" width="14.8515" height="2.22772" transform="rotate(45 2.31738 2.93066)" fill="#11181C"/>
<path d="M25.0316 15.26C21.9716 15.26 19.8516 13 19.8516 9.82C19.8516 6.62 21.9716 4.34 24.9116 4.34C27.0916 4.34 28.2516 5.74 28.5716 6.28H28.6916V4.6H30.2716V15H28.7516V13.36H28.6316C28.3716 13.74 27.2916 15.26 25.0316 15.26ZM25.1316 13.84C27.3916 13.84 28.7516 12 28.7516 9.82C28.7516 7.26 27.1516 5.78 25.0916 5.78C22.9516 5.78 21.4716 7.46 21.4716 9.82C21.4716 12.26 22.9516 13.84 25.1316 13.84ZM33.1789 15V4.6H34.7389V6.54H34.8589C35.1589 5.66 36.1789 4.6 37.6989 4.6H38.5789V6.18H37.7189C35.8189 6.18 34.7589 7.66 34.7589 9.64V15H33.1789ZM44.8361 15.26C41.6961 15.26 39.4961 12.88 39.4961 9.8C39.4961 6.72 41.7561 4.34 44.8161 4.34C47.0761 4.34 49.1761 5.7 49.7361 8.02H48.0961C47.6761 6.66 46.3561 5.78 44.8561 5.78C42.6361 5.78 41.1361 7.54 41.1361 9.8C41.1361 12.14 42.7161 13.82 44.8961 13.82C46.3961 13.82 47.7361 12.94 48.1361 11.58H49.7561C49.2161 13.9 47.0961 15.26 44.8361 15.26ZM56.4417 15.26C53.3817 15.26 51.2617 13 51.2617 9.82C51.2617 6.62 53.3817 4.34 56.3217 4.34C58.5017 4.34 59.6617 5.74 59.9817 6.28H60.1017V4.6H61.6817V15H60.1617V13.36H60.0417C59.7817 13.74 58.7017 15.26 56.4417 15.26ZM56.5417 13.84C58.8017 13.84 60.1617 12 60.1617 9.82C60.1617 7.26 58.5617 5.78 56.5017 5.78C54.3617 5.78 52.8817 7.46 52.8817 9.82C52.8817 12.26 54.3617 13.84 56.5417 13.84ZM68.9691 15.26C65.9091 15.26 63.7891 13 63.7891 9.82C63.7891 6.62 65.9091 4.34 68.8491 4.34C71.0291 4.34 72.1891 5.74 72.5091 6.28H72.6291V-1.19209e-06H74.2091V15H72.6891V13.36H72.5691C72.3091 13.74 71.2291 15.26 68.9691 15.26ZM69.0691 13.84C71.3291 13.84 72.6891 12 72.6891 9.82C72.6891 7.26 71.0891 5.78 69.0291 5.78C66.8891 5.78 65.4091 7.46 65.4091 9.82C65.4091 12.26 66.8891 13.84 69.0691 13.84ZM77.9364 2.72C77.2764 2.72 76.7964 2.22 76.7964 1.56C76.7964 0.919999 77.2764 0.419999 77.9364 0.419999C78.6164 0.419999 79.0964 0.919999 79.0964 1.56C79.0964 2.22 78.6164 2.72 77.9364 2.72ZM77.1164 15V4.6H78.6964V15H77.1164ZM85.9769 15.26C82.9169 15.26 80.7969 13 80.7969 9.82C80.7969 6.62 82.9169 4.34 85.8569 4.34C88.0369 4.34 89.1969 5.74 89.5169 6.28H89.6369V4.6H91.2169V15H89.6969V13.36H89.5769C89.3169 13.74 88.2369 15.26 85.9769 15.26ZM86.0769 13.84C88.3369 13.84 89.6969 12 89.6969 9.82C89.6969 7.26 88.0969 5.78 86.0369 5.78C83.8969 5.78 82.4169 7.46 82.4169 9.82C82.4169 12.26 83.8969 13.84 86.0769 13.84Z" fill="#11181C"/>
</svg>
