<svg width="205" height="37" viewBox="0 0 205 37" fill="none" xmlns="http://www.w3.org/2000/svg">
<mask id="mask0_621_600" style="mask-type:alpha" maskUnits="userSpaceOnUse" x="0" y="0" width="205" height="37">
<path d="M7.51569 21.379C9.10532 21.401 10.5881 20.9395 11.8211 20.1321L11.6541 31.9785L14.9884 32.0246L15.2435 13.9381C15.3022 9.77041 11.9377 6.34466 7.72852 6.28646C3.51937 6.22827 0.0595288 9.55968 0.000758356 13.7274C-0.0580122 17.8951 3.30654 21.3208 7.51569 21.379Z" fill="#849DFF"/>
<path d="M24.4843 20.9067C22.8947 20.8847 21.4119 21.3462 20.1789 22.1536L20.3459 10.3073L17.0116 10.2612L16.7565 28.3476C16.6978 32.5153 20.0623 35.9411 24.2715 35.9992C28.4806 36.0574 31.9405 32.726 31.9992 28.5583C32.058 24.3906 28.6935 20.9649 24.4843 20.9067Z" fill="#849DFF"/>
<path d="M54.352 36.624C47.152 36.624 42.16 31.296 42.16 23.52C42.16 15.744 47.104 10.272 54.112 10.272C58.912 10.272 61.504 13.248 62.32 14.544H62.656V10.896H67.696V36H62.752V32.448H62.464C61.792 33.408 59.344 36.624 54.352 36.624ZM55.072 32.064C59.872 32.064 62.8 28.224 62.8 23.472C62.8 18.048 59.44 14.88 55.024 14.88C50.464 14.88 47.296 18.432 47.296 23.472C47.296 28.704 50.464 32.064 55.072 32.064ZM73.7672 36V10.896H78.6152V15.264H78.9512C79.7192 13.248 82.1192 10.848 85.6712 10.848H87.8793V15.744H85.5273C81.2552 15.744 78.8072 18.96 78.8072 23.616V36H73.7672ZM102.878 36.624C95.1025 36.624 89.8225 30.864 89.8225 23.472C89.8225 16.032 95.1985 10.272 102.83 10.272C108.782 10.272 113.822 13.92 114.974 19.68H109.79C108.926 16.8 106.19 14.88 102.878 14.88C98.1265 14.88 95.0065 18.624 95.0065 23.472C95.0065 28.416 98.2705 32.064 102.974 32.064C106.19 32.064 108.975 30.144 109.838 27.312H114.974C113.87 33.072 108.782 36.624 102.878 36.624ZM130.346 36.624C123.146 36.624 118.154 31.296 118.154 23.52C118.154 15.744 123.098 10.272 130.106 10.272C134.906 10.272 137.498 13.248 138.314 14.544H138.65V10.896H143.69V36H138.746V32.448H138.458C137.786 33.408 135.338 36.624 130.346 36.624ZM131.066 32.064C135.866 32.064 138.794 28.224 138.794 23.472C138.794 18.048 135.434 14.88 131.018 14.88C126.458 14.88 123.29 18.432 123.29 23.472C123.29 28.704 126.458 32.064 131.066 32.064ZM160.177 36.624C152.977 36.624 147.985 31.296 147.985 23.52C147.985 15.744 152.929 10.272 159.937 10.272C164.737 10.272 167.329 13.248 168.145 14.544H168.481V-2.86102e-06H173.521V36H168.577V32.448H168.289C167.617 33.408 165.169 36.624 160.177 36.624ZM160.897 32.064C165.697 32.064 168.625 28.224 168.625 23.472C168.625 18.048 165.265 14.88 160.849 14.88C156.289 14.88 153.121 18.432 153.121 23.472C153.121 28.704 156.289 32.064 160.897 32.064ZM190.44 36.624C182.904 36.624 177.816 31.056 177.816 23.52C177.816 15.552 183.192 10.272 190.344 10.272C198.168 10.272 202.632 16.032 202.632 23.184V25.056H182.856C183.048 29.424 185.976 32.4 190.584 32.4C193.752 32.4 196.488 30.864 197.496 28.416H202.392C201.096 33.264 196.632 36.624 190.44 36.624ZM182.952 21.168H197.64C197.304 16.944 194.232 14.496 190.344 14.496C186.504 14.496 183.336 17.232 182.952 21.168Z" fill="#849DFF"/>
</mask>
<g mask="url(#mask0_621_600)">
<rect x="-26" y="-4.07141" width="247.742" height="48" fill="url(#paint0_linear_621_600)"/>
</g>
<defs>
<linearGradient id="paint0_linear_621_600" x1="169.871" y1="-4.07142" x2="52.8777" y2="102.116" gradientUnits="userSpaceOnUse">
<stop offset="0.28125" stop-color="#6887FF"/>
<stop offset="0.703125" stop-color="#FF9B63"/>
<stop offset="0.979167" stop-color="#EE2353"/>
</linearGradient>
</defs>
</svg>
