<svg width="429" height="98" viewBox="0 0 429 98" fill="none" xmlns="http://www.w3.org/2000/svg">
<path d="M33.272 97.664C14.072 97.664 0.76 83.456 0.76 62.72C0.76 41.984 13.944 27.392 32.632 27.392C45.432 27.392 52.344 35.328 54.52 38.784H55.416V29.056H68.856V96H55.672V86.528H54.904C53.112 89.088 46.584 97.664 33.272 97.664ZM35.192 85.504C47.992 85.504 55.8 75.264 55.8 62.592C55.8 48.128 46.84 39.68 35.064 39.68C22.904 39.68 14.456 49.152 14.456 62.592C14.456 76.544 22.904 85.504 35.192 85.504ZM85.046 96V29.056H97.974V40.704H98.87C100.918 35.328 107.318 28.928 116.79 28.928H122.678V41.984H116.406C105.014 41.984 98.486 50.56 98.486 62.976V96H85.046ZM162.676 97.664C141.94 97.664 127.86 82.304 127.86 62.592C127.86 42.752 142.196 27.392 162.548 27.392C178.42 27.392 191.86 37.12 194.932 52.48H181.108C178.804 44.8 171.508 39.68 162.676 39.68C150.004 39.68 141.684 49.664 141.684 62.592C141.684 75.776 150.388 85.504 162.932 85.504C171.508 85.504 178.932 80.384 181.236 72.832H194.932C191.988 88.192 178.42 97.664 162.676 97.664ZM235.922 97.664C216.722 97.664 203.41 83.456 203.41 62.72C203.41 41.984 216.594 27.392 235.282 27.392C248.082 27.392 254.994 35.328 257.17 38.784H258.066V29.056H271.506V96H258.322V86.528H257.554C255.762 89.088 249.234 97.664 235.922 97.664ZM237.842 85.504C250.642 85.504 258.45 75.264 258.45 62.592C258.45 48.128 249.49 39.68 237.714 39.68C225.554 39.68 217.106 49.152 217.106 62.592C217.106 76.544 225.554 85.504 237.842 85.504ZM315.472 97.664C296.272 97.664 282.96 83.456 282.96 62.72C282.96 41.984 296.144 27.392 314.832 27.392C327.632 27.392 334.544 35.328 336.72 38.784H337.616V-7.62939e-06H351.056V96H337.872V86.528H337.104C335.312 89.088 328.784 97.664 315.472 97.664ZM317.392 85.504C330.192 85.504 338 75.264 338 62.592C338 48.128 329.04 39.68 317.264 39.68C305.104 39.68 296.656 49.152 296.656 62.592C296.656 76.544 305.104 85.504 317.392 85.504ZM396.174 97.664C376.078 97.664 362.51 82.816 362.51 62.72C362.51 41.472 376.846 27.392 395.918 27.392C416.782 27.392 428.686 42.752 428.686 61.824V66.816H375.95C376.462 78.464 384.27 86.4 396.558 86.4C405.006 86.4 412.302 82.304 414.99 75.776H428.046C424.59 88.704 412.686 97.664 396.174 97.664ZM376.206 56.448H415.374C414.478 45.184 406.286 38.656 395.918 38.656C385.678 38.656 377.23 45.952 376.206 56.448Z" fill="#11181C"/>
</svg>
